<?xml version="1.0" encoding="utf-8"?>
<!-- Generator: Adobe Illustrator 16.0.0, SVG Export Plug-In . SVG Version: 6.00 Build 0)  -->
<!DOCTYPE svg PUBLIC "-//W3C//DTD SVG 1.1//EN" "http://www.w3.org/Graphics/SVG/1.1/DTD/svg11.dtd">
<svg version="1.1" id="Layer_1" xmlns="http://www.w3.org/2000/svg" xmlns:xlink="http://www.w3.org/1999/xlink" x="0px" y="0px"
	 width="360px" height="366px" viewBox="0 0 360 366" enable-background="new 0 0 360 366" xml:space="preserve">
<rect x="7.18" y="15.828" fill="#FFFFFF" width="334.898" height="334.897"/>
<rect x="7.18" y="15.828" fill="none" stroke="#000000" stroke-linecap="square" stroke-miterlimit="3.25" stroke-dasharray="10" width="334.898" height="334.897"/>
<path fill-rule="evenodd" clip-rule="evenodd" d="M95.859,86c0-1.555-0.617-3.047-1.714-4.145c-1.098-1.097-2.59-1.714-4.145-1.714
	s-3.047,0.617-4.145,1.714c-1.097,1.098-1.714,2.59-1.714,4.145s0.617,3.047,1.714,4.145c1.098,1.097,2.59,1.714,4.145,1.714
	s3.047-0.617,4.145-1.714C95.242,89.047,95.859,87.555,95.859,86z"/>
<line fill="none" stroke="#000000" stroke-width="3.59" stroke-miterlimit="3.25" x1="90.109" y1="85.91" x2="97.773" y2="90.047"/>
<polygon points="98.402,86.094 98.383,86.57 98.301,87.699 98.219,88.359 98.109,89.012 97.965,89.594 97.773,90.047 97.52,90.414 
	97.117,90.852 96.625,91.32 96.094,91.781 95.152,92.555 94.742,92.879 109.246,96.238 "/>
<path fill-rule="evenodd" clip-rule="evenodd" fill="#FE5C07" d="M205.859,125c0-1.555-0.617-3.047-1.715-4.145
	c-1.098-1.097-2.59-1.714-4.145-1.714s-3.047,0.617-4.145,1.714c-1.098,1.098-1.715,2.59-1.715,4.145s0.617,3.047,1.715,4.145
	c1.098,1.097,2.59,1.714,4.145,1.714s3.047-0.617,4.145-1.714C205.242,128.047,205.859,126.555,205.859,125z"/>
<line fill="none" stroke="#FE5C07" stroke-width="3.59" stroke-miterlimit="3.25" x1="199.863" y1="124.973" x2="197.223" y2="120.836"/>
<polygon fill="#FE5C07" points="194.75,123.984 195,123.574 195.621,122.633 196.012,122.094 196.426,121.578 196.836,121.141 
	197.223,120.836 197.625,120.637 198.188,120.453 198.848,120.285 199.535,120.137 200.73,119.918 201.25,119.836 190.211,109.848 
	"/>
<path fill-rule="evenodd" clip-rule="evenodd" fill="#FEFC09" d="M328.859,183c0-1.555-0.617-3.047-1.715-4.145
	c-1.098-1.097-2.59-1.714-4.145-1.714s-3.047,0.617-4.145,1.714c-1.098,1.098-1.715,2.59-1.715,4.145
	c0,1.555,0.617,3.047,1.715,4.145s2.59,1.715,4.145,1.715s3.047-0.617,4.145-1.715S328.859,184.555,328.859,183z"/>
<line fill="none" stroke="#FEFC09" stroke-width="3.59" stroke-miterlimit="3.25" x1="322.641" y1="183.289" x2="336.414" y2="161.852"/>
<polygon fill="#FEFC09" points="332.516,160.926 332.992,160.98 334.109,161.152 334.762,161.281 335.402,161.441 335.973,161.629 
	336.414,161.852 336.758,162.137 337.164,162.57 337.594,163.098 338.016,163.66 338.715,164.656 339.004,165.094 343.457,150.887 
	"/>
<path fill-rule="evenodd" clip-rule="evenodd" fill="#8AB607" d="M175.859,58c0-1.555-0.617-3.047-1.714-4.145
	c-1.098-1.097-2.59-1.714-4.145-1.714s-3.047,0.617-4.145,1.714c-1.097,1.098-1.714,2.59-1.714,4.145s0.617,3.047,1.714,4.145
	c1.098,1.097,2.59,1.714,4.145,1.714s3.047-0.617,4.145-1.714C175.242,61.047,175.859,59.555,175.859,58z"/>
<line fill="none" stroke="#8AB607" stroke-width="3.59" stroke-miterlimit="3.25" x1="169.914" y1="57.527" x2="156.82" y2="69.512"/>
<polygon fill="#8AB607" points="160.352,71.402 159.906,71.23 158.871,70.781 158.27,70.488 157.691,70.168 157.191,69.84 
	156.82,69.512 156.559,69.148 156.281,68.625 156,68.008 155.734,67.355 155.313,66.215 155.145,65.719 147.207,78.312 "/>
<path fill-rule="evenodd" clip-rule="evenodd" fill="#256F62" d="M157.859,59c0-1.555-0.617-3.047-1.714-4.145
	c-1.098-1.097-2.59-1.714-4.145-1.714s-3.047,0.617-4.145,1.714c-1.097,1.098-1.714,2.59-1.714,4.145s0.617,3.047,1.714,4.145
	c1.098,1.097,2.59,1.714,4.145,1.714s3.047-0.617,4.145-1.714C157.242,62.047,157.859,60.555,157.859,59z"/>
<line fill="none" stroke="#256F62" stroke-width="3.59" stroke-miterlimit="3.25" x1="151.953" y1="58.715" x2="168.344" y2="56.594"/>
<polygon fill="#256F62" points="166.547,53.016 166.809,53.414 167.398,54.379 167.723,54.961 168.012,55.555 168.23,56.113 
	168.344,56.594 168.352,57.039 168.281,57.629 168.152,58.297 167.996,58.98 167.684,60.156 167.535,60.66 181.273,54.918 "/>
<path fill-rule="evenodd" clip-rule="evenodd" fill="#0282ED" d="M123.859,316c0-1.555-0.617-3.047-1.714-4.145
	c-1.098-1.098-2.59-1.715-4.145-1.715s-3.047,0.617-4.145,1.715c-1.097,1.098-1.714,2.59-1.714,4.145s0.617,3.047,1.714,4.145
	c1.098,1.098,2.59,1.715,4.145,1.715s3.047-0.617,4.145-1.715C123.242,319.047,123.859,317.555,123.859,316z"/>
<line fill="none" stroke="#0282ED" stroke-width="3.59" stroke-miterlimit="3.25" x1="118.215" y1="315.762" x2="136.387" y2="324.352"/>
<polygon fill="#0282ED" points="136.801,320.371 136.809,320.848 136.785,321.977 136.742,322.641 136.664,323.297 136.551,323.887 
	136.387,324.352 136.148,324.73 135.773,325.187 135.305,325.684 134.801,326.176 133.902,326.996 133.508,327.34 148.168,329.922 
	"/>
<path fill-rule="evenodd" clip-rule="evenodd" fill="#271D7D" d="M318.859,209c0-1.555-0.617-3.047-1.715-4.145
	s-2.59-1.715-4.145-1.715s-3.047,0.617-4.145,1.715s-1.715,2.59-1.715,4.145s0.617,3.047,1.715,4.145s2.59,1.715,4.145,1.715
	s3.047-0.617,4.145-1.715S318.859,210.555,318.859,209z"/>
<line fill="none" stroke="#271D7D" stroke-width="3.59" stroke-miterlimit="3.25" x1="312.969" y1="208.605" x2="320.625" y2="223.074"/>
<polygon fill="#271D7D" points="323.344,220.137 323.063,220.523 322.367,221.414 321.934,221.922 321.48,222.398 321.035,222.801 
	320.625,223.074 320.207,223.238 319.633,223.379 318.961,223.492 318.266,223.586 317.055,223.703 316.531,223.742 
	326.719,234.598 "/>
<path fill-rule="evenodd" clip-rule="evenodd" fill="#784395" d="M133.859,137c0-1.555-0.617-3.047-1.714-4.145
	c-1.098-1.097-2.59-1.714-4.145-1.714s-3.047,0.617-4.145,1.714c-1.097,1.098-1.714,2.59-1.714,4.145s0.617,3.047,1.714,4.145
	c1.098,1.097,2.59,1.714,4.145,1.714s3.047-0.617,4.145-1.714C133.242,140.047,133.859,138.555,133.859,137z"/>
<path fill-rule="evenodd" clip-rule="evenodd" fill="#784395" d="M130.59,136.297c0-0.61-0.242-1.195-0.672-1.625
	c-0.43-0.43-1.016-0.672-1.621-0.672c-0.609,0-1.195,0.242-1.625,0.672c-0.43,0.43-0.672,1.015-0.672,1.625
	c0,0.605,0.242,1.191,0.672,1.621c0.43,0.43,1.016,0.672,1.625,0.672c0.605,0,1.191-0.242,1.621-0.672
	S130.59,136.902,130.59,136.297z"/>
<polygon fill="#784395" points="128.698,132.369 128.566,132.83 128.218,133.904 127.98,134.529 127.718,135.135 127.437,135.662 
	127.144,136.06 126.812,136.357 126.316,136.685 125.726,137.021 125.101,137.345 124.003,137.873 123.526,138.084 136.808,144.81 
	"/>
<path fill-rule="evenodd" clip-rule="evenodd" fill="#E3037D" d="M160.859,309c0-1.555-0.617-3.047-1.714-4.145
	c-1.098-1.098-2.59-1.715-4.145-1.715s-3.047,0.617-4.145,1.715c-1.097,1.098-1.714,2.59-1.714,4.145s0.617,3.047,1.714,4.145
	c1.098,1.098,2.59,1.715,4.145,1.715s3.047-0.617,4.145-1.715C160.242,312.047,160.859,310.555,160.859,309z"/>
<line fill="none" stroke="#E3037D" stroke-width="3.59" stroke-miterlimit="3.25" x1="155.359" y1="309.211" x2="171.859" y2="316.664"/>
<polygon fill="#E3037D" points="172.207,312.676 172.223,313.152 172.219,314.281 172.184,314.949 172.121,315.605 172.016,316.195 
	171.859,316.664 171.633,317.047 171.262,317.512 170.801,318.012 170.309,318.512 169.422,319.352 169.035,319.699 
	183.738,322.027 "/>
<path fill-rule="evenodd" clip-rule="evenodd" fill="#E70721" d="M270.859,135c0-1.555-0.617-3.047-1.715-4.145
	c-1.098-1.097-2.59-1.714-4.145-1.714s-3.047,0.617-4.145,1.714c-1.098,1.098-1.715,2.59-1.715,4.145s0.617,3.047,1.715,4.145
	c1.098,1.097,2.59,1.714,4.145,1.714s3.047-0.617,4.145-1.714C270.242,138.047,270.859,136.555,270.859,135z"/>
<line fill="none" stroke="#E70721" stroke-width="3.59" stroke-miterlimit="3.25" x1="264.578" y1="135.332" x2="276.219" y2="131.613"/>
<polygon fill="#E70721" points="273.805,128.418 274.137,128.762 274.891,129.605 275.313,130.121 275.703,130.652 276.02,131.164 
	276.219,131.613 276.305,132.055 276.34,132.645 276.332,133.324 276.301,134.027 276.207,135.242 276.152,135.762 288.633,127.648 
	"/>
<path fill-rule="evenodd" clip-rule="evenodd" d="M320.859,155c0-1.555-0.617-3.047-1.715-4.145
	c-1.098-1.097-2.59-1.714-4.145-1.714s-3.047,0.617-4.145,1.714c-1.098,1.098-1.715,2.59-1.715,4.145s0.617,3.047,1.715,4.145
	c1.098,1.097,2.59,1.714,4.145,1.714s3.047-0.617,4.145-1.714C320.242,158.047,320.859,156.555,320.859,155z"/>
<line fill="none" stroke="#000000" stroke-width="3.59" stroke-miterlimit="3.25" x1="314.934" y1="154.77" x2="293.66" y2="173.512"/>
<polygon points="297.152,175.473 296.711,175.289 295.684,174.82 295.09,174.516 294.52,174.187 294.023,173.848 293.66,173.512 
	293.406,173.145 293.137,172.617 292.867,171.992 292.613,171.336 292.215,170.187 292.059,169.687 283.879,182.129 "/>
<path fill-rule="evenodd" clip-rule="evenodd" fill="#FE5C07" d="M196.859,17c0-1.555-0.617-3.047-1.715-4.145
	c-1.098-1.097-2.59-1.714-4.145-1.714s-3.047,0.617-4.145,1.714c-1.098,1.098-1.715,2.59-1.715,4.145s0.617,3.047,1.715,4.145
	c1.098,1.097,2.59,1.714,4.145,1.714s3.047-0.617,4.145-1.714C196.242,20.047,196.859,18.555,196.859,17z"/>
<line fill="none" stroke="#FE5C07" stroke-width="3.59" stroke-miterlimit="3.25" x1="191.059" y1="16.875" x2="194.195" y2="35.984"/>
<polygon fill="#FE5C07" points="197.711,34.066 197.32,34.344 196.379,34.965 195.805,35.305 195.223,35.617 194.672,35.855 
	194.195,35.984 193.75,36.008 193.16,35.953 192.488,35.852 191.797,35.715 190.609,35.445 190.105,35.312 196.309,48.848 "/>
<path fill-rule="evenodd" clip-rule="evenodd" fill="#FEFC09" d="M82.859,345c0-1.555-0.617-3.047-1.714-4.145
	c-1.098-1.098-2.59-1.715-4.145-1.715s-3.047,0.617-4.145,1.715c-1.097,1.098-1.714,2.59-1.714,4.145s0.617,3.047,1.714,4.145
	c1.098,1.098,2.59,1.715,4.145,1.715s3.047-0.617,4.145-1.715C82.242,348.047,82.859,346.555,82.859,345z"/>
<line fill="none" stroke="#FEFC09" stroke-width="3.59" stroke-miterlimit="3.25" x1="77.102" y1="344.52" x2="69.254" y2="350.477"/>
<polygon fill="#FEFC09" points="72.598,352.684 72.168,352.469 71.18,351.926 70.609,351.578 70.063,351.211 69.594,350.836 
	69.254,350.477 69.027,350.09 68.797,349.543 68.574,348.902 68.371,348.227 68.055,347.051 67.934,346.543 58.875,358.355 "/>
<path fill-rule="evenodd" clip-rule="evenodd" fill="#8AB607" d="M345.859,94c0-1.555-0.617-3.047-1.715-4.145
	c-1.098-1.097-2.59-1.714-4.145-1.714s-3.047,0.617-4.145,1.714c-1.098,1.098-1.715,2.59-1.715,4.145s0.617,3.047,1.715,4.145
	c1.098,1.097,2.59,1.714,4.145,1.714s3.047-0.617,4.145-1.714C345.242,97.047,345.859,95.555,345.859,94z"/>
<line fill="none" stroke="#8AB607" stroke-width="3.59" stroke-miterlimit="3.25" x1="340.109" y1="94.434" x2="347.457" y2="73.762"/>
<polygon fill="#8AB607" points="343.449,73.746 343.926,73.691 345.051,73.605 345.719,73.582 346.379,73.59 346.977,73.648 
	347.457,73.762 347.855,73.961 348.348,74.289 348.887,74.707 349.426,75.156 350.332,75.969 350.715,76.328 351.82,61.48 "/>
<path fill-rule="evenodd" clip-rule="evenodd" fill="#256F62" d="M225.859,20c0-1.555-0.617-3.047-1.715-4.145
	c-1.098-1.097-2.59-1.714-4.145-1.714s-3.047,0.617-4.145,1.714c-1.098,1.098-1.715,2.59-1.715,4.145s0.617,3.047,1.715,4.145
	c1.098,1.097,2.59,1.714,4.145,1.714s3.047-0.617,4.145-1.714C225.242,23.047,225.859,21.555,225.859,20z"/>
<line fill="none" stroke="#256F62" stroke-width="3.59" stroke-miterlimit="3.25" x1="219.746" y1="20.223" x2="232.781" y2="13.125"/>
<polygon fill="#256F62" points="229.809,10.441 230.199,10.719 231.098,11.402 231.609,11.832 232.094,12.277 232.5,12.719 
	232.781,13.125 232.949,13.539 233.094,14.117 233.215,14.785 233.316,15.48 233.449,16.691 233.496,17.211 244.227,6.895 "/>
<path fill-rule="evenodd" clip-rule="evenodd" fill="#0282ED" d="M236.859,109c0-1.555-0.617-3.047-1.715-4.145
	c-1.098-1.097-2.59-1.714-4.145-1.714s-3.047,0.617-4.145,1.714c-1.098,1.098-1.715,2.59-1.715,4.145s0.617,3.047,1.715,4.145
	c1.098,1.097,2.59,1.714,4.145,1.714s3.047-0.617,4.145-1.714C236.242,112.047,236.859,110.555,236.859,109z"/>
<line fill="none" stroke="#0282ED" stroke-width="3.59" stroke-miterlimit="3.25" x1="231.148" y1="108.992" x2="224.281" y2="113.473"/>
<polygon fill="#0282ED" points="227.457,115.91 227.047,115.668 226.098,115.055 225.555,114.668 225.035,114.262 224.594,113.855 
	224.281,113.473 224.082,113.07 223.891,112.512 223.715,111.852 223.559,111.168 223.332,109.973 223.246,109.457 213.367,120.594 
	"/>
<path fill-rule="evenodd" clip-rule="evenodd" fill="#271D7D" d="M212.859,66c0-1.555-0.617-3.047-1.715-4.145
	c-1.098-1.097-2.59-1.714-4.145-1.714s-3.047,0.617-4.145,1.714c-1.098,1.098-1.715,2.59-1.715,4.145s0.617,3.047,1.715,4.145
	c1.098,1.097,2.59,1.714,4.145,1.714s3.047-0.617,4.145-1.714C212.242,69.047,212.859,67.555,212.859,66z"/>
<line fill="none" stroke="#271D7D" stroke-width="3.59" stroke-miterlimit="3.25" x1="207.453" y1="65.875" x2="212.121" y2="64.582"/>
<polygon fill="#271D7D" points="209.836,61.293 210.152,61.652 210.871,62.523 211.273,63.055 211.645,63.602 211.941,64.121 
	212.121,64.582 212.191,65.023 212.203,65.617 212.172,66.293 212.113,66.996 211.969,68.203 211.895,68.723 224.684,61.098 "/>
<path fill-rule="evenodd" clip-rule="evenodd" fill="#784395" d="M108.859,105c0-1.555-0.617-3.047-1.714-4.145
	c-1.098-1.097-2.59-1.714-4.145-1.714s-3.047,0.617-4.145,1.714c-1.097,1.098-1.714,2.59-1.714,4.145s0.617,3.047,1.714,4.145
	c1.098,1.097,2.59,1.714,4.145,1.714s3.047-0.617,4.145-1.714C108.242,108.047,108.859,106.555,108.859,105z"/>
<path fill-rule="evenodd" clip-rule="evenodd" fill="#784395" d="M105.59,105.297c0-0.61-0.242-1.195-0.672-1.625
	c-0.43-0.43-1.016-0.672-1.621-0.672c-0.609,0-1.195,0.242-1.625,0.672c-0.43,0.43-0.672,1.015-0.672,1.625
	c0,0.605,0.242,1.191,0.672,1.621c0.43,0.43,1.016,0.672,1.625,0.672c0.605,0,1.191-0.242,1.621-0.672
	S105.59,105.902,105.59,105.297z"/>
<polygon fill="#784395" points="106.669,107.406 106.256,107.16 105.307,106.55 104.764,106.164 104.244,105.758 103.803,105.347 
	103.494,104.965 103.291,104.566 103.103,104.004 102.928,103.347 102.771,102.66 102.541,101.465 102.455,100.949 92.576,112.09 
	"/>
<path fill-rule="evenodd" clip-rule="evenodd" fill="#E3037D" d="M334.859,340c0-1.555-0.617-3.047-1.715-4.145
	s-2.59-1.715-4.145-1.715s-3.047,0.617-4.145,1.715s-1.715,2.59-1.715,4.145s0.617,3.047,1.715,4.145s2.59,1.715,4.145,1.715
	s3.047-0.617,4.145-1.715S334.859,341.555,334.859,340z"/>
<line fill="none" stroke="#E3037D" stroke-width="3.59" stroke-miterlimit="3.25" x1="328.973" y1="339.926" x2="334.113" y2="335.414"/>
<polygon fill="#E3037D" points="330.625,333.449 331.066,333.633 332.094,334.102 332.688,334.406 333.258,334.738 333.754,335.078 
	334.113,335.414 334.371,335.781 334.637,336.309 334.906,336.934 335.156,337.594 335.555,338.742 335.711,339.242 
	343.914,326.816 "/>
<path fill-rule="evenodd" clip-rule="evenodd" fill="#E70721" d="M102.859,305c0-1.555-0.617-3.047-1.714-4.145
	c-1.098-1.098-2.59-1.715-4.145-1.715s-3.047,0.617-4.145,1.715c-1.097,1.098-1.714,2.59-1.714,4.145s0.617,3.047,1.714,4.145
	c1.098,1.098,2.59,1.715,4.145,1.715s3.047-0.617,4.145-1.715C102.242,308.047,102.859,306.555,102.859,305z"/>
<path fill-rule="evenodd" clip-rule="evenodd" fill="#E70721" d="M99.59,305.297c0-0.61-0.242-1.195-0.672-1.625
	S97.902,303,97.297,303c-0.609,0-1.195,0.242-1.625,0.672c-0.43,0.43-0.672,1.015-0.672,1.625c0,0.605,0.242,1.191,0.672,1.621
	c0.43,0.43,1.016,0.672,1.625,0.672c0.605,0,1.191-0.242,1.621-0.672S99.59,305.902,99.59,305.297z"/>
<polygon fill="#E70721" points="97,298.621 97.473,298.691 98.582,298.898 99.231,299.046 99.867,299.23 100.43,299.438 
	100.863,299.676 101.199,299.969 101.586,300.418 102,300.961 102.402,301.535 103.067,302.555 103.344,303 108.27,288.949 "/>
</svg>
