<?xml version="1.0" encoding="utf-8"?>
<!-- Generator: Adobe Illustrator 16.0.0, SVG Export Plug-In . SVG Version: 6.00 Build 0)  -->
<!DOCTYPE svg PUBLIC "-//W3C//DTD SVG 1.1//EN" "http://www.w3.org/Graphics/SVG/1.1/DTD/svg11.dtd">
<svg version="1.1" id="Layer_1" xmlns="http://www.w3.org/2000/svg" xmlns:xlink="http://www.w3.org/1999/xlink" x="0px" y="0px"
	 width="360px" height="356px" viewBox="0 0 360 356" enable-background="new 0 0 360 356" xml:space="preserve">
<g>
	<g>
		<polyline fill="none" stroke="#000000" stroke-miterlimit="3.25" points="351.971,342.5 351.971,348.5 345.971,348.5 		"/>
		
			<line fill="none" stroke="#000000" stroke-miterlimit="3.25" stroke-dasharray="12.2211,12.2211" x1="333.75" y1="348.5" x2="22.11" y2="348.5"/>
		<polyline fill="none" stroke="#000000" stroke-miterlimit="3.25" points="16,348.5 10,348.5 10,342.5 		"/>
		
			<line fill="none" stroke="#000000" stroke-miterlimit="3.25" stroke-dasharray="12.2222,12.2222" x1="10" y1="330.277" x2="10" y2="18.611"/>
		<polyline fill="none" stroke="#000000" stroke-miterlimit="3.25" points="10,12.5 10,6.5 16,6.5 		"/>
		
			<line fill="none" stroke="#000000" stroke-miterlimit="3.25" stroke-dasharray="12.2211,12.2211" x1="28.221" y1="6.5" x2="339.86" y2="6.5"/>
		<polyline fill="none" stroke="#000000" stroke-miterlimit="3.25" points="345.971,6.5 351.971,6.5 351.971,12.5 		"/>
		
			<line fill="none" stroke="#000000" stroke-miterlimit="3.25" stroke-dasharray="12.2222,12.2222" x1="351.971" y1="24.722" x2="351.971" y2="336.389"/>
	</g>
</g>
<rect x="156" fill="#FFFFFF" width="49.842" height="21.5"/>
<rect x="156" y="334.063" fill="#FFFFFF" width="34.361" height="21.5"/>
<rect x="338.5" y="145.566" fill="#FFFFFF" width="21.5" height="49.84"/>
<rect y="165.333" fill="#FFFFFF" width="21.5" height="37.85"/>
<g>
	<path fill="#666666" d="M5.288,188.308H0.552v-0.82h4.736V188.308z"/>
</g>
<g>
	<path fill="#666666" d="M9.715,190.5H8.836v-5.601c-0.211,0.202-0.489,0.403-0.833,0.605s-0.652,0.354-0.925,0.454v-0.85
		c0.492-0.231,0.921-0.511,1.289-0.84s0.628-0.647,0.781-0.957h0.566V190.5z"/>
	<path fill="#666666" d="M12.459,190.5v-1.001h1.001v1.001H12.459z"/>
	<path fill="#666666" d="M14.745,186.97c0-0.847,0.087-1.527,0.261-2.044c0.174-0.516,0.433-0.913,0.776-1.193
		s0.775-0.42,1.296-0.42c0.384,0,0.721,0.077,1.011,0.232c0.29,0.154,0.529,0.377,0.718,0.668c0.189,0.292,0.337,0.646,0.444,1.064
		c0.107,0.419,0.161,0.982,0.161,1.692c0,0.84-0.086,1.518-0.259,2.034c-0.172,0.516-0.431,0.914-0.774,1.195
		c-0.343,0.282-0.777,0.423-1.301,0.423c-0.69,0-1.232-0.247-1.626-0.742C14.98,189.284,14.745,188.314,14.745,186.97z
		 M15.648,186.97c0,1.175,0.138,1.957,0.413,2.347c0.275,0.389,0.614,0.583,1.018,0.583s0.743-0.195,1.018-0.586
		s0.413-1.172,0.413-2.344c0-1.179-0.138-1.961-0.413-2.349s-0.618-0.581-1.028-0.581c-0.404,0-0.726,0.171-0.967,0.513
		C15.799,184.989,15.648,185.795,15.648,186.97z"/>
</g>
<g>
	<path fill="#666666" d="M90.788,188.308h-4.736v-0.82h4.736V188.308z"/>
</g>
<g>
	<path fill="#666666" d="M91.905,186.97c0-0.847,0.087-1.527,0.261-2.044c0.174-0.516,0.433-0.913,0.776-1.193
		s0.775-0.42,1.296-0.42c0.384,0,0.721,0.077,1.011,0.232c0.29,0.154,0.529,0.377,0.718,0.668c0.189,0.292,0.337,0.646,0.444,1.064
		c0.107,0.419,0.161,0.982,0.161,1.692c0,0.84-0.086,1.518-0.259,2.034c-0.172,0.516-0.431,0.914-0.774,1.195
		c-0.343,0.282-0.777,0.423-1.301,0.423c-0.69,0-1.232-0.247-1.626-0.742C92.141,189.284,91.905,188.314,91.905,186.97z
		 M92.808,186.97c0,1.175,0.138,1.957,0.413,2.347c0.275,0.389,0.614,0.583,1.018,0.583s0.743-0.195,1.018-0.586
		s0.413-1.172,0.413-2.344c0-1.179-0.138-1.961-0.413-2.349s-0.618-0.581-1.028-0.581c-0.404,0-0.726,0.171-0.967,0.513
		C92.959,184.989,92.808,185.795,92.808,186.97z"/>
	<path fill="#666666" d="M97.959,190.5v-1.001h1.001v1.001H97.959z"/>
	<path fill="#666666" d="M100.245,188.625l0.923-0.078c0.068,0.449,0.227,0.787,0.476,1.014c0.249,0.226,0.549,0.339,0.901,0.339
		c0.423,0,0.781-0.159,1.074-0.479s0.439-0.742,0.439-1.27c0-0.501-0.141-0.896-0.422-1.187s-0.65-0.435-1.106-0.435
		c-0.283,0-0.539,0.064-0.767,0.192c-0.228,0.129-0.407,0.296-0.537,0.501l-0.825-0.107l0.693-3.677h3.56v0.84h-2.856l-0.386,1.924
		c0.43-0.3,0.88-0.449,1.353-0.449c0.625,0,1.152,0.217,1.582,0.649s0.645,0.989,0.645,1.67c0,0.647-0.189,1.208-0.566,1.68
		c-0.459,0.579-1.085,0.869-1.88,0.869c-0.651,0-1.183-0.183-1.594-0.547S100.303,189.228,100.245,188.625z"/>
</g>
<g>
	<path fill="#666666" d="M259.915,186.97c0-0.847,0.087-1.527,0.261-2.044c0.175-0.516,0.434-0.913,0.777-1.193
		c0.343-0.28,0.775-0.42,1.296-0.42c0.384,0,0.721,0.077,1.011,0.232c0.29,0.154,0.529,0.377,0.718,0.668
		c0.188,0.292,0.337,0.646,0.444,1.064c0.107,0.419,0.161,0.982,0.161,1.692c0,0.84-0.086,1.518-0.259,2.034
		c-0.173,0.516-0.431,0.914-0.773,1.195c-0.344,0.282-0.777,0.423-1.302,0.423c-0.69,0-1.232-0.247-1.626-0.742
		C260.151,189.284,259.915,188.314,259.915,186.97z M260.818,186.97c0,1.175,0.138,1.957,0.412,2.347
		c0.275,0.389,0.615,0.583,1.019,0.583s0.743-0.195,1.019-0.586c0.274-0.391,0.412-1.172,0.412-2.344
		c0-1.179-0.138-1.961-0.412-2.349c-0.275-0.388-0.618-0.581-1.028-0.581c-0.403,0-0.726,0.171-0.967,0.513
		C260.97,184.989,260.818,185.795,260.818,186.97z"/>
	<path fill="#666666" d="M265.97,190.5v-1.001h1.001v1.001H265.97z"/>
	<path fill="#666666" d="M268.255,188.625l0.923-0.078c0.068,0.449,0.227,0.787,0.477,1.014c0.248,0.226,0.549,0.339,0.9,0.339
		c0.423,0,0.781-0.159,1.074-0.479s0.439-0.742,0.439-1.27c0-0.501-0.141-0.896-0.422-1.187c-0.282-0.29-0.65-0.435-1.106-0.435
		c-0.283,0-0.539,0.064-0.767,0.192c-0.228,0.129-0.407,0.296-0.537,0.501l-0.825-0.107l0.693-3.677h3.56v0.84h-2.856l-0.386,1.924
		c0.43-0.3,0.881-0.449,1.353-0.449c0.625,0,1.152,0.217,1.582,0.649s0.645,0.989,0.645,1.67c0,0.647-0.188,1.208-0.566,1.68
		c-0.459,0.579-1.086,0.869-1.88,0.869c-0.651,0-1.183-0.183-1.594-0.547C268.549,189.711,268.313,189.228,268.255,188.625z"/>
</g>
<g>
	<path fill="#666666" d="M348.726,190.5h-0.879v-5.601c-0.212,0.202-0.489,0.403-0.833,0.605c-0.343,0.202-0.651,0.354-0.925,0.454
		v-0.85c0.491-0.231,0.921-0.511,1.289-0.84s0.628-0.647,0.781-0.957h0.566V190.5z"/>
	<path fill="#666666" d="M351.47,190.5v-1.001h1.001v1.001H351.47z"/>
	<path fill="#666666" d="M353.755,186.97c0-0.847,0.087-1.527,0.261-2.044c0.175-0.516,0.434-0.913,0.777-1.193
		c0.343-0.28,0.775-0.42,1.296-0.42c0.384,0,0.721,0.077,1.011,0.232c0.29,0.154,0.529,0.377,0.718,0.668
		c0.188,0.292,0.337,0.646,0.444,1.064c0.107,0.419,0.161,0.982,0.161,1.692c0,0.84-0.086,1.518-0.259,2.034
		c-0.173,0.516-0.431,0.914-0.773,1.195c-0.344,0.282-0.777,0.423-1.302,0.423c-0.69,0-1.232-0.247-1.626-0.742
		C353.991,189.284,353.755,188.314,353.755,186.97z M354.658,186.97c0,1.175,0.138,1.957,0.412,2.347
		c0.275,0.389,0.615,0.583,1.019,0.583s0.743-0.195,1.019-0.586c0.274-0.391,0.412-1.172,0.412-2.344
		c0-1.179-0.138-1.961-0.412-2.349c-0.275-0.388-0.618-0.581-1.028-0.581c-0.403,0-0.726,0.171-0.967,0.513
		C354.81,184.989,354.658,185.795,354.658,186.97z"/>
</g>
<g>
	<path fill="#666666" d="M163.288,349.808h-4.736v-0.82h4.736V349.808z"/>
</g>
<g>
	<path fill="#666666" d="M167.715,352h-0.879v-5.601c-0.211,0.202-0.489,0.403-0.833,0.605s-0.652,0.354-0.925,0.454v-0.85
		c0.492-0.231,0.921-0.511,1.289-0.84s0.628-0.647,0.781-0.957h0.566V352z"/>
	<path fill="#666666" d="M170.459,352v-1.001h1.001V352H170.459z"/>
	<path fill="#666666" d="M172.745,348.47c0-0.847,0.087-1.527,0.261-2.044c0.174-0.516,0.433-0.913,0.776-1.193
		s0.775-0.42,1.296-0.42c0.384,0,0.721,0.077,1.011,0.232c0.29,0.154,0.529,0.377,0.718,0.668c0.189,0.292,0.337,0.646,0.444,1.064
		c0.107,0.419,0.161,0.982,0.161,1.692c0,0.84-0.086,1.518-0.259,2.034c-0.172,0.516-0.431,0.914-0.774,1.195
		c-0.343,0.282-0.777,0.423-1.301,0.423c-0.69,0-1.232-0.247-1.626-0.742C172.98,350.784,172.745,349.814,172.745,348.47z
		 M173.648,348.47c0,1.175,0.138,1.957,0.413,2.347c0.275,0.389,0.614,0.583,1.018,0.583s0.743-0.195,1.018-0.586
		s0.413-1.172,0.413-2.344c0-1.179-0.138-1.961-0.413-2.349s-0.618-0.581-1.028-0.581c-0.404,0-0.726,0.171-0.967,0.513
		C173.799,346.489,173.648,347.295,173.648,348.47z"/>
</g>
<g>
	<path fill="#666666" d="M163.288,264.308h-4.736v-0.82h4.736V264.308z"/>
</g>
<g>
	<path fill="#666666" d="M164.405,262.97c0-0.847,0.087-1.527,0.261-2.044c0.174-0.516,0.433-0.913,0.776-1.193
		s0.775-0.42,1.296-0.42c0.384,0,0.721,0.077,1.011,0.232c0.29,0.154,0.529,0.377,0.718,0.668c0.189,0.292,0.337,0.646,0.444,1.064
		c0.107,0.419,0.161,0.982,0.161,1.692c0,0.84-0.086,1.518-0.259,2.034c-0.172,0.516-0.431,0.914-0.774,1.195
		c-0.343,0.282-0.777,0.423-1.301,0.423c-0.69,0-1.232-0.247-1.626-0.742C164.641,265.284,164.405,264.314,164.405,262.97z
		 M165.308,262.97c0,1.175,0.138,1.957,0.413,2.347c0.275,0.389,0.614,0.583,1.018,0.583s0.743-0.195,1.018-0.586
		s0.413-1.172,0.413-2.344c0-1.179-0.138-1.961-0.413-2.349s-0.618-0.581-1.028-0.581c-0.404,0-0.726,0.171-0.967,0.513
		C165.459,260.989,165.308,261.795,165.308,262.97z"/>
	<path fill="#666666" d="M170.459,266.5v-1.001h1.001v1.001H170.459z"/>
	<path fill="#666666" d="M172.745,264.625l0.923-0.078c0.068,0.449,0.227,0.787,0.476,1.014c0.249,0.226,0.549,0.339,0.901,0.339
		c0.423,0,0.781-0.159,1.074-0.479s0.439-0.742,0.439-1.27c0-0.501-0.141-0.896-0.422-1.187s-0.65-0.435-1.106-0.435
		c-0.283,0-0.539,0.064-0.767,0.192c-0.228,0.129-0.407,0.296-0.537,0.501l-0.825-0.107l0.693-3.677h3.56v0.84h-2.856l-0.386,1.924
		c0.43-0.3,0.88-0.449,1.353-0.449c0.625,0,1.152,0.217,1.582,0.649s0.645,0.989,0.645,1.67c0,0.647-0.189,1.208-0.566,1.68
		c-0.459,0.579-1.085,0.869-1.88,0.869c-0.651,0-1.183-0.183-1.594-0.547S172.803,265.228,172.745,264.625z"/>
</g>
<g>
	<path fill="#666666" d="M164.415,91.97c0-0.846,0.087-1.527,0.261-2.043s0.433-0.914,0.776-1.194s0.775-0.42,1.296-0.42
		c0.384,0,0.721,0.077,1.011,0.232s0.529,0.377,0.718,0.669s0.337,0.646,0.444,1.064s0.161,0.982,0.161,1.692
		c0,0.84-0.086,1.518-0.259,2.034s-0.431,0.915-0.774,1.196s-0.777,0.422-1.301,0.422c-0.69,0-1.232-0.248-1.626-0.742
		C164.651,94.284,164.415,93.314,164.415,91.97z M165.318,91.97c0,1.175,0.138,1.957,0.413,2.346s0.614,0.583,1.018,0.583
		s0.743-0.195,1.018-0.586s0.413-1.172,0.413-2.344c0-1.178-0.138-1.961-0.413-2.349s-0.618-0.581-1.028-0.581
		c-0.404,0-0.726,0.171-0.967,0.513C165.47,89.989,165.318,90.794,165.318,91.97z"/>
	<path fill="#666666" d="M170.47,95.5v-1.001h1.001V95.5H170.47z"/>
	<path fill="#666666" d="M172.755,93.625l0.923-0.078c0.068,0.449,0.227,0.787,0.476,1.013s0.549,0.339,0.901,0.339
		c0.423,0,0.781-0.16,1.074-0.479s0.439-0.742,0.439-1.27c0-0.501-0.141-0.897-0.422-1.187s-0.65-0.435-1.106-0.435
		c-0.283,0-0.539,0.064-0.767,0.193s-0.407,0.295-0.537,0.5l-0.825-0.107l0.693-3.677h3.56v0.84h-2.856l-0.386,1.924
		c0.43-0.299,0.88-0.449,1.353-0.449c0.625,0,1.152,0.216,1.582,0.649s0.645,0.99,0.645,1.67c0,0.648-0.189,1.208-0.566,1.68
		c-0.459,0.58-1.085,0.869-1.88,0.869c-0.651,0-1.183-0.182-1.594-0.547S172.813,94.227,172.755,93.625z"/>
</g>
<g>
	<path fill="#666666" d="M167.726,10h-0.879V4.399c-0.211,0.202-0.489,0.404-0.833,0.605s-0.652,0.353-0.925,0.454v-0.85
		c0.492-0.231,0.921-0.511,1.289-0.84s0.628-0.648,0.781-0.957h0.566V10z"/>
	<path fill="#666666" d="M170.47,10V8.999h1.001V10H170.47z"/>
	<path fill="#666666" d="M172.755,6.47c0-0.846,0.087-1.527,0.261-2.043s0.433-0.914,0.776-1.194s0.775-0.42,1.296-0.42
		c0.384,0,0.721,0.077,1.011,0.232s0.529,0.377,0.718,0.669s0.337,0.646,0.444,1.064s0.161,0.982,0.161,1.692
		c0,0.84-0.086,1.518-0.259,2.034s-0.431,0.915-0.774,1.196s-0.777,0.422-1.301,0.422c-0.69,0-1.232-0.248-1.626-0.742
		C172.991,8.784,172.755,7.814,172.755,6.47z M173.658,6.47c0,1.175,0.138,1.957,0.413,2.346s0.614,0.583,1.018,0.583
		s0.743-0.195,1.018-0.586s0.413-1.172,0.413-2.344c0-1.178-0.138-1.961-0.413-2.349s-0.618-0.581-1.028-0.581
		c-0.404,0-0.726,0.171-0.967,0.513C173.81,4.489,173.658,5.294,173.658,6.47z"/>
</g>
<g>
	<line fill="none" stroke="#666666" stroke-miterlimit="3.25" x1="10" y1="177.5" x2="10" y2="173.488"/>
	<line fill="none" stroke="#666666" stroke-miterlimit="3.25" x1="27.102" y1="177.5" x2="27.102" y2="175.094"/>
	<line fill="none" stroke="#666666" stroke-miterlimit="3.25" x1="44.199" y1="177.5" x2="44.199" y2="175.094"/>
	<line fill="none" stroke="#666666" stroke-miterlimit="3.25" x1="61.301" y1="177.5" x2="61.301" y2="175.094"/>
	<line fill="none" stroke="#666666" stroke-miterlimit="3.25" x1="78.398" y1="177.5" x2="78.398" y2="175.094"/>
	<line fill="none" stroke="#666666" stroke-miterlimit="3.25" x1="95.5" y1="177.5" x2="95.5" y2="173.488"/>
	<line fill="none" stroke="#666666" stroke-miterlimit="3.25" x1="112.602" y1="177.5" x2="112.602" y2="175.094"/>
	<line fill="none" stroke="#666666" stroke-miterlimit="3.25" x1="129.699" y1="177.5" x2="129.699" y2="175.094"/>
	<line fill="none" stroke="#666666" stroke-miterlimit="3.25" x1="146.801" y1="177.5" x2="146.801" y2="175.094"/>
	<line fill="none" stroke="#666666" stroke-miterlimit="3.25" x1="163.898" y1="177.5" x2="163.898" y2="175.094"/>
	<line fill="none" stroke="#666666" stroke-miterlimit="3.25" x1="181" y1="177.5" x2="181" y2="173.488"/>
	<line fill="none" stroke="#666666" stroke-miterlimit="3.25" x1="198.102" y1="177.5" x2="198.102" y2="175.094"/>
	<line fill="none" stroke="#666666" stroke-miterlimit="3.25" x1="215.199" y1="177.5" x2="215.199" y2="175.094"/>
	<line fill="none" stroke="#666666" stroke-miterlimit="3.25" x1="232.301" y1="177.5" x2="232.301" y2="175.094"/>
	<line fill="none" stroke="#666666" stroke-miterlimit="3.25" x1="249.398" y1="177.5" x2="249.398" y2="175.094"/>
	<line fill="none" stroke="#666666" stroke-miterlimit="3.25" x1="266.5" y1="177.5" x2="266.5" y2="173.488"/>
	<line fill="none" stroke="#666666" stroke-miterlimit="3.25" x1="283.602" y1="177.5" x2="283.602" y2="175.094"/>
	<line fill="none" stroke="#666666" stroke-miterlimit="3.25" x1="300.699" y1="177.5" x2="300.699" y2="175.094"/>
	<line fill="none" stroke="#666666" stroke-miterlimit="3.25" x1="317.801" y1="177.5" x2="317.801" y2="175.094"/>
	<line fill="none" stroke="#666666" stroke-miterlimit="3.25" x1="334.898" y1="177.5" x2="334.898" y2="175.094"/>
	<line fill="none" stroke="#666666" stroke-miterlimit="3.25" x1="352" y1="177.5" x2="352" y2="173.488"/>
	<line fill="none" stroke="#666666" stroke-miterlimit="3.25" x1="10" y1="177.5" x2="352" y2="177.5"/>
	<line fill="none" stroke="#666666" stroke-miterlimit="3.25" x1="181" y1="348.5" x2="185.012" y2="348.5"/>
	<line fill="none" stroke="#666666" stroke-miterlimit="3.25" x1="181" y1="331.398" x2="183.406" y2="331.398"/>
	<line fill="none" stroke="#666666" stroke-miterlimit="3.25" x1="181" y1="314.301" x2="183.406" y2="314.301"/>
	<line fill="none" stroke="#666666" stroke-miterlimit="3.25" x1="181" y1="297.199" x2="183.406" y2="297.199"/>
	<line fill="none" stroke="#666666" stroke-miterlimit="3.25" x1="181" y1="280.102" x2="183.406" y2="280.102"/>
	<line fill="none" stroke="#666666" stroke-miterlimit="3.25" x1="181" y1="263" x2="185.012" y2="263"/>
	<line fill="none" stroke="#666666" stroke-miterlimit="3.25" x1="181" y1="245.898" x2="183.406" y2="245.898"/>
	<line fill="none" stroke="#666666" stroke-miterlimit="3.25" x1="181" y1="228.801" x2="183.406" y2="228.801"/>
	<line fill="none" stroke="#666666" stroke-miterlimit="3.25" x1="181" y1="211.699" x2="183.406" y2="211.699"/>
	<line fill="none" stroke="#666666" stroke-miterlimit="3.25" x1="181" y1="194.602" x2="183.406" y2="194.602"/>
	<line fill="none" stroke="#666666" stroke-miterlimit="3.25" x1="181" y1="177.5" x2="185.012" y2="177.5"/>
	<line fill="none" stroke="#666666" stroke-miterlimit="3.25" x1="181" y1="160.398" x2="183.406" y2="160.398"/>
	<line fill="none" stroke="#666666" stroke-miterlimit="3.25" x1="181" y1="143.301" x2="183.406" y2="143.301"/>
	<line fill="none" stroke="#666666" stroke-miterlimit="3.25" x1="181" y1="126.199" x2="183.406" y2="126.199"/>
	<line fill="none" stroke="#666666" stroke-miterlimit="3.25" x1="181" y1="109.102" x2="183.406" y2="109.102"/>
	<line fill="none" stroke="#666666" stroke-miterlimit="3.25" x1="181" y1="92" x2="185.012" y2="92"/>
	<line fill="none" stroke="#666666" stroke-miterlimit="3.25" x1="181" y1="74.898" x2="183.406" y2="74.898"/>
	<line fill="none" stroke="#666666" stroke-miterlimit="3.25" x1="181" y1="57.801" x2="183.406" y2="57.801"/>
	<line fill="none" stroke="#666666" stroke-miterlimit="3.25" x1="181" y1="40.699" x2="183.406" y2="40.699"/>
	<line fill="none" stroke="#666666" stroke-miterlimit="3.25" x1="181" y1="23.602" x2="183.406" y2="23.602"/>
	<line fill="none" stroke="#666666" stroke-miterlimit="3.25" x1="181" y1="6.5" x2="185.012" y2="6.5"/>
	<line fill="none" stroke="#666666" stroke-miterlimit="3.25" x1="181" y1="348.5" x2="181" y2="6.5"/>
</g>
<line fill="none" stroke="#0071BC" stroke-width="3.42" stroke-linecap="round" stroke-miterlimit="3.25" x1="181" y1="177.5" x2="254.605" y2="155.418"/>
<polygon fill="#0071BC" points="252.363,152.332 252.672,152.668 253.375,153.48 253.77,153.98 254.133,154.492 254.426,154.984 
	254.605,155.418 254.684,155.836 254.703,156.402 254.688,157.051 254.645,157.719 254.535,158.871 254.473,159.367 266.5,151.852 
	"/>
<g>
	<g>
		<defs>
			<polyline id="SVGID_1_" points="205.783,129.957 229.823,129.957 229.823,169.117 205.783,169.117 205.783,129.957 			"/>
		</defs>
		<clipPath id="SVGID_2_">
			<use xlink:href="#SVGID_1_"  overflow="visible"/>
		</clipPath>
		<polyline clip-path="url(#SVGID_2_)" fill="#FFFFFF" points="207.786,131.958 207.775,131.958 207.775,131.979 207.786,131.979 
			207.786,131.958 		"/>
		<polyline clip-path="url(#SVGID_2_)" fill="#FFFFFF" points="207.786,167.1 207.775,167.1 207.775,167.119 207.786,167.119 
			207.786,167.1 		"/>
		<path clip-path="url(#SVGID_2_)" d="M218.005,141.421c0-1.178-0.567-1.527-0.96-1.527c-0.545,0-1.069,0.567-1.069,1.047
			c0,0.284,0.109,0.415,0.35,0.655c0.458,0.437,0.741,1.003,0.741,1.789c0,0.917-1.33,5.913-3.884,5.913
			c-1.112,0-1.614-0.764-1.614-1.898c0-1.222,0.589-2.815,1.266-4.626c0.152-0.371,0.262-0.676,0.262-1.091
			c0-0.981-0.698-1.789-1.789-1.789c-2.052,0-2.881,3.164-2.881,3.36c0,0.218,0.219,0.218,0.262,0.218
			c0.219,0,0.24-0.043,0.35-0.393c0.633-2.204,1.571-2.706,2.204-2.706c0.174,0,0.545,0,0.545,0.698
			c0,0.545-0.218,1.135-0.371,1.527c-0.96,2.531-1.243,3.535-1.243,4.473c0,2.357,1.92,2.706,2.924,2.706
			C216.762,149.779,218.005,142.556,218.005,141.421z M222.391,136.556c-0.306,0.284-1.025,0.895-1.025,1.288
			c0,0.218,0.218,0.436,0.436,0.436c0.197,0,0.306-0.153,0.415-0.284c0.262-0.327,0.764-0.938,1.724-1.418
			c0.153-0.087,0.371-0.197,0.371-0.458c0-0.218-0.152-0.327-0.306-0.437c-0.479-0.327-0.72-0.72-0.895-1.244
			c-0.044-0.196-0.131-0.48-0.437-0.48s-0.437,0.284-0.437,0.458c0,0.109,0.175,0.807,0.524,1.265h-7.354
			c-0.371,0-0.764,0-0.764,0.437s0.393,0.437,0.764,0.437H222.391z"/>
		<path clip-path="url(#SVGID_2_)" d="M222.583,152.699c-0.542,0-1.641-0.255-1.976-1.927c-0.175-0.908-0.175-2.406-0.175-3.234
			c0-1.099,0-2.214,0.175-3.09c0.335-1.625,1.577-1.784,1.976-1.784c0.541,0,1.641,0.271,1.959,1.72
			c0.191,0.876,0.191,2.071,0.191,3.154c0,0.94,0,2.374-0.191,3.266C224.208,152.476,223.108,152.699,222.583,152.699z
			 M226.151,147.729c0-1.704-0.176-2.74-0.701-3.759c-0.701-1.402-1.991-1.752-2.867-1.752c-2.008,0-2.74,1.498-2.963,1.943
			c-0.574,1.163-0.605,2.74-0.605,3.568c0,1.052,0.048,2.661,0.813,3.935c0.732,1.179,1.911,1.481,2.756,1.481
			c0.765,0,2.135-0.239,2.931-1.816C226.104,150.182,226.151,148.764,226.151,147.729z"/>
	</g>
	<g>
		<defs>
			<polyline id="SVGID_3_" points="343.24,149.537 359.7,149.537 359.7,176.297 343.24,176.297 343.24,149.537 			"/>
		</defs>
		<clipPath id="SVGID_4_">
			<use xlink:href="#SVGID_3_"  overflow="visible"/>
		</clipPath>
		<polyline clip-path="url(#SVGID_4_)" fill="#FFFFFF" points="345.243,151.526 345.232,151.526 345.232,151.546 345.243,151.546 
			345.243,151.526 		"/>
		<polyline clip-path="url(#SVGID_4_)" fill="#FFFFFF" points="345.243,174.28 345.232,174.28 345.232,174.299 345.243,174.299 
			345.243,174.28 		"/>
		<path clip-path="url(#SVGID_4_)" d="M352.53,156.323c0.131-0.567,0.633-2.575,2.16-2.575c0.109,0,0.633,0,1.091,0.284
			c-0.61,0.109-1.047,0.655-1.047,1.178c0,0.349,0.24,0.764,0.829,0.764c0.48,0,1.179-0.393,1.179-1.266
			c0-1.134-1.288-1.44-2.029-1.44c-1.266,0-2.029,1.156-2.291,1.658c-0.546-1.44-1.725-1.658-2.357-1.658
			c-2.269,0-3.513,2.815-3.513,3.36c0,0.218,0.218,0.218,0.262,0.218c0.175,0,0.24-0.044,0.284-0.24
			c0.741-2.313,2.182-2.858,2.924-2.858c0.414,0,1.178,0.196,1.178,1.462c0,0.676-0.371,2.138-1.178,5.193
			c-0.35,1.353-1.113,2.269-2.073,2.269c-0.131,0-0.633,0-1.091-0.284c0.545-0.109,1.025-0.567,1.025-1.178
			c0-0.589-0.48-0.764-0.808-0.764c-0.654,0-1.2,0.567-1.2,1.266c0,1.004,1.092,1.44,2.052,1.44c1.439,0,2.226-1.527,2.291-1.658
			c0.262,0.808,1.047,1.658,2.356,1.658c2.247,0,3.491-2.814,3.491-3.36c0-0.218-0.196-0.218-0.262-0.218
			c-0.196,0-0.24,0.087-0.284,0.24c-0.72,2.335-2.203,2.858-2.901,2.858c-0.852,0-1.2-0.698-1.2-1.44c0-0.48,0.131-0.96,0.371-1.92
			L352.53,156.323z"/>
	</g>
	<g>
		<defs>
			<polyline id="SVGID_5_" points="190.361,0 205.842,0 205.842,26.76 190.361,26.76 190.361,0 			"/>
		</defs>
		<clipPath id="SVGID_6_">
			<use xlink:href="#SVGID_5_"  overflow="visible"/>
		</clipPath>
		<polyline clip-path="url(#SVGID_6_)" fill="#FFFFFF" points="192.364,1.989 192.354,1.989 192.354,2.009 192.364,2.009 
			192.364,1.989 		"/>
		<polyline clip-path="url(#SVGID_6_)" fill="#FFFFFF" points="192.364,24.743 192.354,24.743 192.354,24.762 192.364,24.762 
			192.364,24.743 		"/>
		<path clip-path="url(#SVGID_6_)" d="M202.968,5.062c0.088-0.306,0.088-0.349,0.088-0.502c0-0.393-0.306-0.589-0.633-0.589
			c-0.219,0-0.567,0.131-0.764,0.458c-0.044,0.109-0.219,0.786-0.306,1.178c-0.152,0.567-0.306,1.156-0.437,1.746l-0.981,3.928
			c-0.088,0.327-1.025,1.854-2.466,1.854c-1.113,0-1.353-0.96-1.353-1.767c0-1.004,0.37-2.357,1.112-4.277
			c0.35-0.895,0.437-1.135,0.437-1.571c0-0.982-0.698-1.789-1.789-1.789c-2.073,0-2.881,3.164-2.881,3.36
			c0,0.218,0.219,0.218,0.262,0.218c0.219,0,0.24-0.044,0.35-0.393c0.589-2.051,1.462-2.706,2.204-2.706
			c0.174,0,0.545,0,0.545,0.698c0,0.545-0.218,1.113-0.371,1.527c-0.872,2.313-1.265,3.557-1.265,4.583
			c0,1.942,1.374,2.596,2.661,2.596c0.852,0,1.594-0.371,2.204-0.982c-0.283,1.135-0.545,2.204-1.418,3.36
			c-0.567,0.742-1.396,1.375-2.4,1.375c-0.306,0-1.287-0.065-1.658-0.917c0.349,0,0.633,0,0.938-0.262
			c0.218-0.197,0.437-0.48,0.437-0.895c0-0.676-0.59-0.764-0.808-0.764c-0.502,0-1.222,0.349-1.222,1.418
			c0,1.091,0.96,1.898,2.313,1.898c2.247,0,4.495-1.986,5.105-4.451L202.968,5.062z"/>
	</g>
</g>
<circle fill="#0071BC" cx="181" cy="177.5" r="5.589"/>
</svg>
