<?xml version="1.0" encoding="utf-8"?>
<!-- Generator: Adobe Illustrator 16.0.0, SVG Export Plug-In . SVG Version: 6.00 Build 0)  -->
<!DOCTYPE svg PUBLIC "-//W3C//DTD SVG 1.1//EN" "http://www.w3.org/Graphics/SVG/1.1/DTD/svg11.dtd">
<svg version="1.1" id="Layer_1" xmlns="http://www.w3.org/2000/svg" xmlns:xlink="http://www.w3.org/1999/xlink" x="0px" y="0px"
	 width="360px" height="223px" viewBox="0 0 360 223" enable-background="new 0 0 360 223" xml:space="preserve">
<polyline fill="none" stroke="#5E81B5" stroke-width="1.6" stroke-linecap="square" stroke-miterlimit="3.25" points="8.5,56.828 
	8.605,57.34 8.922,58.887 9.34,60.98 10.184,65.254 11.863,74.117 15.23,92.82 22.527,134.758 22.738,135.953 22.953,137.145 
	23.379,139.516 24.23,144.203 25.934,153.316 26.039,153.875 26.145,154.43 26.359,155.535 26.785,157.723 27.637,162.016 
	29.34,170.207 29.441,170.691 29.547,171.172 29.754,172.129 30.172,174.016 31.008,177.672 32.676,184.504 32.887,185.309 
	33.094,186.105 33.512,187.66 34.348,190.637 36.016,196.012 36.129,196.348 36.242,196.68 36.469,197.332 36.922,198.594 
	37.148,199.203 37.375,199.793 37.828,200.93 37.941,201.207 38.055,201.477 38.281,202.004 38.734,203.016 39.641,204.844 
	39.754,205.055 39.867,205.262 40.094,205.66 40.547,206.41 40.656,206.59 40.77,206.762 40.996,207.094 41.449,207.711 
	41.563,207.855 41.676,207.992 41.902,208.258 42.016,208.387 42.129,208.508 42.355,208.738 42.469,208.852 42.582,208.953 
	42.809,209.152 42.922,209.246 43.035,209.332 43.262,209.496 43.367,209.566 43.473,209.633 43.578,209.695 43.789,209.812 
	43.895,209.863 44,209.91 44.211,209.996 44.316,210.031 44.426,210.062 44.531,210.094 44.742,210.141 44.953,210.172 
	45.164,210.187 45.27,210.191 45.48,210.184 45.586,210.176 45.691,210.164 45.902,210.125 46.008,210.102 46.113,210.074 
	46.219,210.043 46.324,210.008 46.43,209.969 46.535,209.926 46.641,209.879 46.75,209.832 46.855,209.777 47.066,209.656 
	47.172,209.594 47.277,209.523 47.488,209.375 47.699,209.211 47.91,209.031 48.332,208.629 48.438,208.52 48.543,208.406 
	48.754,208.168 49.18,207.645 49.391,207.363 49.602,207.066 50.023,206.426 50.137,206.242 50.254,206.055 50.48,205.668 
	50.938,204.844 51.055,204.625 51.168,204.406 51.398,203.953 51.855,202.992 51.969,202.742 52.082,202.488 52.313,201.969 
	52.77,200.879 53.688,198.508 53.801,198.195 53.914,197.875 54.145,197.227 54.602,195.887 55.52,193.023 57.352,186.602 
	57.465,186.18 57.574,185.754 57.801,184.891 58.25,183.129 59.148,179.457 60.949,171.555 64.543,153.848 64.648,153.301 
	64.754,152.75 64.965,151.645 65.383,149.418 66.223,144.895 67.898,135.613 71.254,116.434 78.531,75.098 78.637,74.527 
	78.742,73.953 78.957,72.816 79.379,70.555 80.23,66.109 81.926,57.559 82.035,57.043 82.141,56.527 82.352,55.5 82.777,53.477 
	83.625,49.531 85.324,42.105 85.43,41.672 85.531,41.242 85.738,40.387 86.156,38.707 86.988,35.48 87.094,35.086 87.195,34.699 
	87.406,33.93 87.82,32.43 88.652,29.562 88.863,28.875 89.07,28.203 89.484,26.891 90.32,24.414 90.422,24.117 90.527,23.824 
	90.734,23.25 91.152,22.141 91.984,20.078 92.211,19.555 92.434,19.047 92.887,18.082 93.113,17.621 93.34,17.18 93.789,16.344 
	93.902,16.145 94.016,15.949 94.242,15.57 94.691,14.867 94.805,14.699 94.918,14.539 95.145,14.227 95.598,13.656 95.707,13.523 
	95.82,13.398 96.047,13.152 96.273,12.926 96.5,12.719 96.613,12.617 96.727,12.523 96.949,12.348 97.063,12.266 97.176,12.191 
	97.402,12.051 97.516,11.984 97.629,11.926 97.855,11.816 97.965,11.77 98.078,11.727 98.305,11.656 98.418,11.625 98.645,11.578 
	98.758,11.562 98.984,11.539 99.098,11.535 99.207,11.535 99.418,11.551 99.629,11.574 99.734,11.594 99.84,11.617 99.945,11.645 
	100.051,11.676 100.262,11.746 100.367,11.789 100.578,11.883 100.684,11.937 100.895,12.055 101,12.117 101.105,12.184 
	101.316,12.332 101.422,12.41 101.527,12.492 101.738,12.668 101.844,12.762 101.949,12.859 102.16,13.066 102.578,13.523 
	102.789,13.773 103,14.039 103.422,14.613 103.527,14.766 103.633,14.922 103.844,15.246 104.266,15.934 104.477,16.301 
	104.688,16.68 105.109,17.484 105.949,19.262 106.066,19.52 106.18,19.781 106.406,20.316 106.863,21.437 107.777,23.867 
	107.891,24.187 108.008,24.512 108.234,25.176 108.691,26.543 109.605,29.457 109.832,30.223 110.063,31.004 110.52,32.605 
	111.43,35.973 113.258,43.34 113.371,43.816 113.484,44.297 113.707,45.27 114.156,47.242 115.051,51.316 116.844,59.945 
	120.434,78.77 127.125,116.949 127.238,117.605 127.352,118.258 127.578,119.57 128.031,122.184 128.938,127.387 130.754,137.641 
	130.867,138.273 131.207,140.16 131.66,142.66 132.566,147.594 134.379,157.137 134.488,157.68 134.594,158.219 134.805,159.293 
	135.227,161.418 136.074,165.578 137.766,173.488 137.875,173.961 137.98,174.434 138.191,175.371 138.613,177.219 139.461,180.785 
	141.152,187.402 141.27,187.824 141.383,188.242 141.613,189.066 142.07,190.68 142.988,193.727 143.102,194.09 143.219,194.453 
	143.449,195.164 143.906,196.539 144.824,199.102 144.938,199.406 145.055,199.707 145.281,200.293 145.742,201.418 
	145.855,201.687 145.969,201.953 146.199,202.477 146.66,203.469 146.773,203.707 146.887,203.941 147.117,204.398 147.574,205.258 
	147.691,205.465 147.805,205.664 148.035,206.051 148.492,206.777 148.605,206.945 148.719,207.109 148.945,207.422 
	149.055,207.574 149.168,207.719 149.395,208 149.621,208.266 149.844,208.512 150.293,208.957 150.52,209.152 150.746,209.332 
	150.859,209.414 150.969,209.496 151.195,209.641 151.309,209.707 151.422,209.77 151.535,209.828 151.645,209.879 151.758,209.93 
	151.984,210.016 152.098,210.051 152.207,210.086 152.32,210.113 152.434,210.137 152.547,210.156 152.66,210.172 152.773,210.18 
	152.883,210.187 152.996,210.191 153.223,210.184 153.336,210.172 153.449,210.156 153.559,210.137 153.672,210.113 
	153.785,210.086 153.898,210.055 154.012,210.02 154.121,209.977 154.234,209.934 154.348,209.883 154.574,209.773 154.797,209.645 
	154.91,209.574 155.023,209.5 155.25,209.336 155.363,209.25 155.473,209.156 155.699,208.961 155.91,208.766 156.121,208.551 
	156.539,208.082 156.75,207.824 156.961,207.555 157.379,206.965 157.484,206.812 157.59,206.652 157.801,206.324 158.219,205.621 
	159.059,204.047 159.164,203.836 159.27,203.621 159.48,203.18 159.902,202.254 160.742,200.234 160.848,199.969 160.949,199.699 
	161.16,199.148 161.582,198.004 162.422,195.566 162.535,195.219 162.648,194.867 162.879,194.156 163.332,192.687 164.242,189.582 
	166.066,182.711 166.18,182.254 166.293,181.793 166.52,180.863 166.977,178.969 167.887,175.031 169.711,166.625 169.922,165.602 
	170.137,164.57 170.563,162.48 171.41,158.207 173.113,149.324 176.516,130.512 183.188,92.102 183.301,91.457 183.641,89.535 
	184.09,86.98 184.996,81.93 186.805,72.082 186.918,71.477 187.031,70.879 187.258,69.68 187.711,67.312 188.613,62.664 
	190.422,53.781 190.531,53.281 190.637,52.785 190.848,51.797 191.27,49.848 192.113,46.066 193.801,38.977 193.906,38.555 
	194.012,38.137 194.223,37.309 194.645,35.687 195.488,32.586 197.176,26.953 197.293,26.598 197.406,26.25 197.637,25.562 
	198.094,24.234 199.008,21.766 199.121,21.477 199.238,21.187 199.465,20.625 199.922,19.551 200.836,17.594 200.953,17.371 
	201.066,17.148 201.297,16.719 201.754,15.906 201.867,15.715 201.98,15.527 202.211,15.164 202.668,14.488 202.781,14.328 
	202.895,14.176 203.125,13.879 203.238,13.738 203.355,13.602 203.582,13.344 203.695,13.219 203.813,13.098 204.039,12.875 
	204.156,12.766 204.27,12.664 204.496,12.477 204.609,12.387 204.723,12.305 204.836,12.227 204.945,12.152 205.059,12.082 
	205.172,12.016 205.395,11.898 205.508,11.844 205.621,11.793 205.734,11.75 205.844,11.711 205.957,11.672 206.07,11.641 
	206.184,11.613 206.293,11.59 206.406,11.57 206.52,11.555 206.633,11.543 206.742,11.539 206.855,11.535 207.082,11.543 
	207.191,11.555 207.305,11.57 207.418,11.59 207.531,11.613 207.641,11.641 207.754,11.672 207.867,11.707 207.98,11.75 
	208.09,11.793 208.316,11.895 208.43,11.953 208.539,12.016 208.652,12.082 208.766,12.152 208.988,12.305 209.102,12.387 
	209.215,12.473 209.438,12.66 209.887,13.086 210.113,13.32 210.336,13.574 210.785,14.133 211.012,14.437 211.234,14.758 
	211.684,15.449 211.895,15.793 212.102,16.152 212.523,16.91 212.625,17.109 212.73,17.312 212.941,17.727 213.359,18.598 
	213.465,18.824 213.57,19.055 213.777,19.523 214.199,20.504 215.035,22.629 215.246,23.191 215.453,23.77 215.875,24.961 
	216.711,27.5 218.387,33.168 218.613,33.996 218.84,34.836 219.297,36.559 220.203,40.152 222.02,47.93 225.656,65.512 
	225.762,66.059 226.078,67.711 226.504,69.937 227.352,74.465 229.047,83.77 232.441,103.09 239.094,141.133 239.32,142.375 
	239.543,143.613 239.996,146.066 240.898,150.906 242.703,160.234 242.816,160.801 242.926,161.363 243.152,162.484 
	243.605,164.699 244.508,169.016 246.313,177.156 246.418,177.609 246.523,178.059 246.73,178.949 247.152,180.707 247.996,184.09 
	248.102,184.5 248.207,184.906 248.414,185.715 248.836,187.293 249.68,190.316 249.891,191.043 250.098,191.754 250.52,193.145 
	251.363,195.777 251.469,196.094 251.574,196.402 251.781,197.016 252.203,198.203 253.047,200.422 253.273,200.984 253.5,201.531 
	253.957,202.578 254.07,202.832 254.188,203.078 254.414,203.562 254.871,204.48 254.984,204.699 255.098,204.914 255.328,205.328 
	255.785,206.113 256.012,206.48 256.238,206.828 256.695,207.477 256.809,207.629 256.926,207.773 257.152,208.055 257.266,208.191 
	257.379,208.32 257.609,208.566 257.723,208.684 257.836,208.797 258.066,209.008 258.293,209.203 258.52,209.379 258.637,209.461 
	258.75,209.539 258.863,209.613 258.977,209.684 259.09,209.746 259.207,209.805 259.32,209.863 259.434,209.914 259.547,209.961 
	259.66,210.004 259.777,210.043 260.004,210.105 260.23,210.152 260.348,210.168 260.453,210.18 260.559,210.187 260.664,210.191 
	260.773,210.191 260.984,210.176 261.09,210.164 261.199,210.148 261.41,210.109 261.52,210.082 261.625,210.051 261.73,210.016 
	261.836,209.977 261.945,209.934 262.051,209.887 262.262,209.785 262.477,209.664 262.688,209.531 262.902,209.379 
	263.008,209.301 263.117,209.215 263.328,209.035 263.754,208.629 263.859,208.52 263.969,208.406 264.18,208.164 264.605,207.637 
	264.715,207.496 264.82,207.352 265.031,207.051 265.457,206.406 265.566,206.238 265.672,206.062 265.887,205.703 266.313,204.941 
	267.164,203.242 267.266,203.016 267.371,202.789 267.582,202.324 268,201.352 268.832,199.25 268.938,198.973 269.043,198.691 
	269.25,198.121 269.668,196.937 270.504,194.422 270.609,194.094 270.715,193.762 270.922,193.09 271.34,191.707 272.176,188.797 
	273.848,182.437 273.961,181.98 274.074,181.52 274.301,180.59 274.754,178.699 275.66,174.77 277.473,166.391 281.098,147.867 
	287.863,109.578 287.977,108.918 288.09,108.254 288.32,106.926 288.777,104.273 289.695,98.988 291.527,88.531 291.641,87.887 
	291.758,87.238 291.984,85.953 292.445,83.391 293.359,78.328 295.195,68.5 295.305,67.91 295.418,67.324 295.645,66.156 
	296.094,63.844 296.992,59.32 298.793,50.707 298.906,50.187 299.02,49.676 299.242,48.652 299.691,46.641 300.594,42.754 
	302.391,35.555 302.602,34.766 302.813,33.992 303.23,32.477 304.07,29.582 304.176,29.234 304.281,28.891 304.492,28.211 
	304.91,26.887 305.75,24.391 305.855,24.094 305.961,23.801 306.168,23.219 306.59,22.102 307.43,20.027 307.535,19.781 
	307.637,19.543 307.848,19.07 308.27,18.168 309.105,16.535 309.223,16.328 309.336,16.129 309.563,15.742 310.016,15.016 
	310.133,14.844 310.246,14.68 310.473,14.359 310.926,13.77 311.043,13.633 311.156,13.5 311.383,13.246 311.496,13.125 
	311.609,13.012 311.836,12.793 311.953,12.691 312.066,12.594 312.293,12.41 312.406,12.324 312.52,12.246 312.746,12.098 
	312.863,12.027 312.977,11.965 313.09,11.906 313.203,11.852 313.316,11.801 313.43,11.754 313.656,11.676 313.773,11.645 
	313.887,11.613 314,11.59 314.113,11.57 314.227,11.555 314.453,11.539 314.566,11.535 314.684,11.539 314.91,11.555 315.023,11.57 
	315.137,11.59 315.25,11.613 315.477,11.676 315.594,11.715 315.707,11.754 315.82,11.801 315.934,11.852 316.047,11.906 
	316.16,11.965 316.387,12.094 316.496,12.164 316.602,12.234 316.813,12.387 316.918,12.469 317.027,12.555 317.238,12.738 
	317.344,12.836 317.449,12.937 317.664,13.148 318.086,13.621 318.195,13.75 318.301,13.879 318.512,14.152 318.938,14.746 
	319.043,14.902 319.148,15.062 319.363,15.395 319.785,16.102 319.895,16.289 320,16.48 320.211,16.871 320.637,17.695 
	321.488,19.516 321.594,19.758 321.699,20.004 321.91,20.512 322.336,21.559 323.188,23.824 323.289,24.117 323.395,24.41 
	323.602,25.012 324.02,26.25 324.852,28.879 326.52,34.707 326.621,35.094 326.727,35.484 326.934,36.277 327.352,37.891 
	328.184,41.25 329.852,48.453 329.961,48.965 330.301,50.512 330.754,52.613 331.656,56.934 333.465,66.012 337.078,85.555 
	343.824,124.32 343.945,124.996 344.063,125.672 344.297,127.02 344.766,129.703 345.707,135.027 347.59,145.441 347.711,146.078 
	347.828,146.715 348.063,147.984 348.531,150.5 349.473,155.437 349.594,156.047 349.711,156.652 349.945,157.859 350.414,160.242 
	350.535,160.832 350.652,161.422 350.887,162.59 351.004,163.172 351.121,163.75 351.355,164.898 "/>
<polyline fill="none" stroke="#E19C24" stroke-width="1.6" stroke-linecap="square" stroke-miterlimit="3.25" points="8.5,210.191 
	8.711,210.066 8.922,209.945 9.34,209.703 10.184,209.215 11.863,208.242 15.23,206.289 22.527,202.062 29.34,198.117 
	36.016,194.246 43.262,190.051 50.023,186.133 57.352,181.887 64.543,177.719 71.254,173.828 78.531,169.613 85.324,165.68 
	91.984,161.82 99.207,157.633 105.949,153.727 113.258,149.492 120.434,145.336 127.125,141.457 134.379,137.254 141.152,133.328 
	148.492,129.078 155.699,124.902 162.422,121.008 169.711,116.785 176.516,112.84 183.188,108.977 190.422,104.781 197.176,100.867 
	204.496,96.629 211.684,92.465 218.387,88.582 225.656,84.367 232.441,80.437 239.094,76.582 246.313,72.402 253.047,68.5 
	260.348,64.27 267.164,60.32 273.848,56.445 281.098,52.246 287.863,48.324 295.195,44.078 302.391,39.906 309.105,36.016 
	316.387,31.797 323.188,27.859 329.852,23.996 337.078,19.809 343.824,15.898 343.945,15.832 344.063,15.762 344.297,15.629 
	344.766,15.355 345.707,14.809 347.59,13.719 347.711,13.648 347.828,13.582 348.531,13.172 349.473,12.629 349.594,12.559 
	349.711,12.492 350.414,12.082 350.535,12.012 350.652,11.945 350.887,11.809 351.004,11.742 351.121,11.672 351.238,11.605 
	351.355,11.535 "/>
<g>
	<path fill="#666666" d="M5.288,121.671H0.552v-0.82h4.736V121.671z"/>
</g>
<g>
	<path fill="#666666" d="M9.715,123.863H8.836v-5.601c-0.211,0.202-0.489,0.403-0.833,0.605s-0.652,0.354-0.925,0.454v-0.85
		c0.492-0.231,0.921-0.511,1.289-0.84s0.628-0.647,0.781-0.957h0.566V123.863z"/>
	<path fill="#666666" d="M11.966,120.333c0-0.847,0.087-1.527,0.261-2.044c0.174-0.516,0.433-0.913,0.776-1.193
		s0.775-0.42,1.296-0.42c0.384,0,0.721,0.077,1.011,0.232c0.29,0.154,0.529,0.377,0.718,0.668c0.189,0.292,0.337,0.646,0.444,1.064
		c0.107,0.419,0.161,0.982,0.161,1.692c0,0.84-0.086,1.518-0.259,2.034c-0.172,0.516-0.431,0.914-0.774,1.195
		c-0.343,0.282-0.777,0.423-1.301,0.423c-0.69,0-1.232-0.247-1.626-0.742C12.202,122.647,11.966,121.678,11.966,120.333z
		 M12.87,120.333c0,1.175,0.138,1.957,0.413,2.347c0.275,0.389,0.614,0.583,1.018,0.583s0.743-0.195,1.018-0.586
		s0.413-1.172,0.413-2.344c0-1.179-0.138-1.961-0.413-2.349s-0.618-0.581-1.028-0.581c-0.404,0-0.726,0.171-0.967,0.513
		C13.021,118.353,12.87,119.158,12.87,120.333z"/>
</g>
<g>
	<path fill="#666666" d="M93.502,121.671h-4.736v-0.82h4.736V121.671z"/>
</g>
<g>
	<path fill="#666666" d="M94.619,121.988l0.923-0.078c0.068,0.449,0.227,0.787,0.476,1.014c0.249,0.226,0.549,0.339,0.901,0.339
		c0.423,0,0.781-0.159,1.074-0.479s0.439-0.742,0.439-1.27c0-0.501-0.141-0.896-0.422-1.187s-0.65-0.435-1.106-0.435
		c-0.283,0-0.539,0.064-0.767,0.192c-0.228,0.129-0.407,0.296-0.537,0.501l-0.825-0.107l0.693-3.677h3.56v0.84h-2.856l-0.386,1.924
		c0.43-0.3,0.88-0.449,1.353-0.449c0.625,0,1.152,0.217,1.582,0.649s0.645,0.989,0.645,1.67c0,0.647-0.189,1.208-0.566,1.68
		c-0.459,0.579-1.085,0.869-1.88,0.869c-0.651,0-1.183-0.183-1.594-0.547S94.678,122.591,94.619,121.988z"/>
</g>
<g>
	<path fill="#666666" d="M263.058,121.988l0.923-0.078c0.068,0.449,0.227,0.787,0.477,1.014c0.248,0.226,0.549,0.339,0.9,0.339
		c0.423,0,0.781-0.159,1.074-0.479s0.439-0.742,0.439-1.27c0-0.501-0.141-0.896-0.422-1.187c-0.282-0.29-0.65-0.435-1.106-0.435
		c-0.283,0-0.539,0.064-0.767,0.192c-0.228,0.129-0.407,0.296-0.537,0.501l-0.825-0.107l0.693-3.677h3.56v0.84h-2.856l-0.386,1.924
		c0.43-0.3,0.881-0.449,1.353-0.449c0.625,0,1.152,0.217,1.582,0.649s0.645,0.989,0.645,1.67c0,0.647-0.188,1.208-0.566,1.68
		c-0.459,0.579-1.086,0.869-1.88,0.869c-0.651,0-1.183-0.183-1.594-0.547C263.352,123.074,263.116,122.591,263.058,121.988z"/>
</g>
<g>
	<path fill="#666666" d="M349.583,123.863h-0.879v-5.601c-0.212,0.202-0.489,0.403-0.833,0.605
		c-0.343,0.202-0.651,0.354-0.925,0.454v-0.85c0.491-0.231,0.921-0.511,1.289-0.84s0.628-0.647,0.781-0.957h0.566V123.863z"/>
	<path fill="#666666" d="M351.834,120.333c0-0.847,0.087-1.527,0.261-2.044c0.175-0.516,0.434-0.913,0.777-1.193
		c0.343-0.28,0.775-0.42,1.296-0.42c0.384,0,0.721,0.077,1.011,0.232c0.29,0.154,0.529,0.377,0.718,0.668
		c0.188,0.292,0.337,0.646,0.444,1.064c0.107,0.419,0.161,0.982,0.161,1.692c0,0.84-0.086,1.518-0.259,2.034
		c-0.173,0.516-0.431,0.914-0.773,1.195c-0.344,0.282-0.777,0.423-1.302,0.423c-0.69,0-1.232-0.247-1.626-0.742
		C352.07,122.647,351.834,121.678,351.834,120.333z M352.737,120.333c0,1.175,0.138,1.957,0.412,2.347
		c0.275,0.389,0.615,0.583,1.019,0.583s0.743-0.195,1.019-0.586c0.274-0.391,0.412-1.172,0.412-2.344
		c0-1.179-0.138-1.961-0.412-2.349c-0.275-0.388-0.618-0.581-1.028-0.581c-0.403,0-0.726,0.171-0.967,0.513
		C352.889,118.353,352.737,119.158,352.737,120.333z"/>
</g>
<g>
	<path fill="#666666" d="M162.217,211.498h-4.736v-0.82h4.736V211.498z"/>
</g>
<g>
	<path fill="#666666" d="M166.644,213.69h-0.879v-5.601c-0.211,0.202-0.489,0.403-0.833,0.605s-0.652,0.354-0.925,0.454v-0.85
		c0.492-0.231,0.921-0.511,1.289-0.84s0.628-0.647,0.781-0.957h0.566V213.69z"/>
	<path fill="#666666" d="M169.388,213.69v-1.001h1.001v1.001H169.388z"/>
	<path fill="#666666" d="M171.673,210.16c0-0.847,0.087-1.527,0.261-2.044c0.174-0.516,0.433-0.913,0.776-1.193
		s0.775-0.42,1.296-0.42c0.384,0,0.721,0.077,1.011,0.232c0.29,0.154,0.529,0.377,0.718,0.668c0.189,0.292,0.337,0.646,0.444,1.064
		c0.107,0.419,0.161,0.982,0.161,1.692c0,0.84-0.086,1.518-0.259,2.034c-0.172,0.516-0.431,0.914-0.774,1.195
		c-0.343,0.282-0.777,0.423-1.301,0.423c-0.69,0-1.232-0.247-1.626-0.742C171.909,212.475,171.673,211.505,171.673,210.16z
		 M172.577,210.16c0,1.175,0.138,1.957,0.413,2.347c0.275,0.389,0.614,0.583,1.018,0.583s0.743-0.195,1.018-0.586
		s0.413-1.172,0.413-2.344c0-1.179-0.138-1.961-0.413-2.349s-0.618-0.581-1.028-0.581c-0.404,0-0.726,0.171-0.967,0.513
		C172.728,208.18,172.577,208.985,172.577,210.16z"/>
</g>
<g>
	<path fill="#666666" d="M162.217,161.834h-4.736v-0.82h4.736V161.834z"/>
</g>
<g>
	<path fill="#666666" d="M163.333,160.496c0-0.847,0.087-1.527,0.261-2.044c0.174-0.516,0.433-0.913,0.776-1.193
		s0.775-0.42,1.296-0.42c0.384,0,0.721,0.077,1.011,0.232c0.29,0.154,0.529,0.377,0.718,0.668c0.189,0.292,0.337,0.646,0.444,1.064
		c0.107,0.419,0.161,0.982,0.161,1.692c0,0.84-0.086,1.518-0.259,2.034c-0.172,0.516-0.431,0.914-0.774,1.195
		c-0.343,0.282-0.777,0.423-1.301,0.423c-0.69,0-1.232-0.247-1.626-0.742C163.569,162.811,163.333,161.841,163.333,160.496z
		 M164.237,160.496c0,1.175,0.138,1.957,0.413,2.347c0.275,0.389,0.614,0.583,1.018,0.583s0.743-0.195,1.018-0.586
		s0.413-1.172,0.413-2.344c0-1.179-0.138-1.961-0.413-2.349s-0.618-0.581-1.028-0.581c-0.404,0-0.726,0.171-0.967,0.513
		C164.388,158.516,164.237,159.321,164.237,160.496z"/>
	<path fill="#666666" d="M169.388,164.026v-1.001h1.001v1.001H169.388z"/>
	<path fill="#666666" d="M171.673,162.151l0.923-0.078c0.068,0.449,0.227,0.787,0.476,1.014c0.249,0.226,0.549,0.339,0.901,0.339
		c0.423,0,0.781-0.159,1.074-0.479s0.439-0.742,0.439-1.27c0-0.501-0.141-0.896-0.422-1.187s-0.65-0.435-1.106-0.435
		c-0.283,0-0.539,0.064-0.767,0.192c-0.228,0.129-0.407,0.296-0.537,0.501l-0.825-0.107l0.693-3.677h3.56v0.84h-2.856l-0.386,1.924
		c0.43-0.3,0.88-0.449,1.353-0.449c0.625,0,1.152,0.217,1.582,0.649s0.645,0.989,0.645,1.67c0,0.647-0.189,1.208-0.566,1.68
		c-0.459,0.579-1.085,0.869-1.88,0.869c-0.651,0-1.183-0.183-1.594-0.547S171.732,162.754,171.673,162.151z"/>
</g>
<g>
	<path fill="#666666" d="M163.344,61.169c0-0.846,0.087-1.527,0.261-2.043s0.433-0.914,0.776-1.194s0.775-0.42,1.296-0.42
		c0.384,0,0.721,0.077,1.011,0.232s0.529,0.377,0.718,0.669s0.337,0.646,0.444,1.064s0.161,0.982,0.161,1.692
		c0,0.84-0.086,1.518-0.259,2.034s-0.431,0.915-0.774,1.196s-0.777,0.422-1.301,0.422c-0.69,0-1.232-0.248-1.626-0.742
		C163.58,63.484,163.344,62.514,163.344,61.169z M164.247,61.169c0,1.175,0.138,1.957,0.413,2.346s0.614,0.583,1.018,0.583
		s0.743-0.195,1.018-0.586s0.413-1.172,0.413-2.344c0-1.178-0.138-1.961-0.413-2.349s-0.618-0.581-1.028-0.581
		c-0.404,0-0.726,0.171-0.967,0.513C164.398,59.188,164.247,59.994,164.247,61.169z"/>
	<path fill="#666666" d="M169.398,64.7v-1.001h1.001V64.7H169.398z"/>
	<path fill="#666666" d="M171.684,62.825l0.923-0.078c0.068,0.449,0.227,0.787,0.476,1.013s0.549,0.339,0.901,0.339
		c0.423,0,0.781-0.16,1.074-0.479s0.439-0.742,0.439-1.27c0-0.501-0.141-0.897-0.422-1.187s-0.65-0.435-1.106-0.435
		c-0.283,0-0.539,0.064-0.767,0.193s-0.407,0.295-0.537,0.5l-0.825-0.107l0.693-3.677h3.56v0.84h-2.856l-0.386,1.924
		c0.43-0.299,0.88-0.449,1.353-0.449c0.625,0,1.152,0.216,1.582,0.649s0.645,0.99,0.645,1.67c0,0.648-0.189,1.208-0.566,1.68
		c-0.459,0.58-1.085,0.869-1.88,0.869c-0.651,0-1.183-0.182-1.594-0.547S171.742,63.427,171.684,62.825z"/>
</g>
<g>
	<path fill="#666666" d="M166.654,15.036h-0.879V9.436c-0.211,0.202-0.489,0.404-0.833,0.605s-0.652,0.353-0.925,0.454v-0.85
		c0.492-0.231,0.921-0.511,1.289-0.84s0.628-0.648,0.781-0.957h0.566V15.036z"/>
	<path fill="#666666" d="M169.398,15.036v-1.001h1.001v1.001H169.398z"/>
	<path fill="#666666" d="M171.684,11.506c0-0.846,0.087-1.527,0.261-2.043s0.433-0.914,0.776-1.194s0.775-0.42,1.296-0.42
		c0.384,0,0.721,0.077,1.011,0.232s0.529,0.377,0.718,0.669s0.337,0.646,0.444,1.064s0.161,0.982,0.161,1.692
		c0,0.84-0.086,1.518-0.259,2.034s-0.431,0.915-0.774,1.196s-0.777,0.422-1.301,0.422c-0.69,0-1.232-0.248-1.626-0.742
		C171.919,13.82,171.684,12.85,171.684,11.506z M172.587,11.506c0,1.175,0.138,1.957,0.413,2.346s0.614,0.583,1.018,0.583
		s0.743-0.195,1.018-0.586s0.413-1.172,0.413-2.344c0-1.178-0.138-1.961-0.413-2.349s-0.618-0.581-1.028-0.581
		c-0.404,0-0.726,0.171-0.967,0.513C172.738,9.525,172.587,10.331,172.587,11.506z"/>
</g>
<g>
	<line fill="none" stroke="#666666" stroke-miterlimit="3.25" x1="8.5" y1="110.863" x2="8.5" y2="106.859"/>
	<line fill="none" stroke="#666666" stroke-miterlimit="3.25" x1="25.645" y1="110.863" x2="25.645" y2="108.461"/>
	<line fill="none" stroke="#666666" stroke-miterlimit="3.25" x1="42.785" y1="110.863" x2="42.785" y2="108.461"/>
	<line fill="none" stroke="#666666" stroke-miterlimit="3.25" x1="59.93" y1="110.863" x2="59.93" y2="108.461"/>
	<line fill="none" stroke="#666666" stroke-miterlimit="3.25" x1="77.07" y1="110.863" x2="77.07" y2="108.461"/>
	<line fill="none" stroke="#666666" stroke-miterlimit="3.25" x1="94.215" y1="110.863" x2="94.215" y2="106.859"/>
	<line fill="none" stroke="#666666" stroke-miterlimit="3.25" x1="111.355" y1="110.863" x2="111.355" y2="108.461"/>
	<line fill="none" stroke="#666666" stroke-miterlimit="3.25" x1="128.5" y1="110.863" x2="128.5" y2="108.461"/>
	<line fill="none" stroke="#666666" stroke-miterlimit="3.25" x1="145.645" y1="110.863" x2="145.645" y2="108.461"/>
	<line fill="none" stroke="#666666" stroke-miterlimit="3.25" x1="162.785" y1="110.863" x2="162.785" y2="108.461"/>
	<line fill="none" stroke="#666666" stroke-miterlimit="3.25" x1="179.93" y1="110.863" x2="179.93" y2="106.859"/>
	<line fill="none" stroke="#666666" stroke-miterlimit="3.25" x1="197.07" y1="110.863" x2="197.07" y2="108.461"/>
	<line fill="none" stroke="#666666" stroke-miterlimit="3.25" x1="214.215" y1="110.863" x2="214.215" y2="108.461"/>
	<line fill="none" stroke="#666666" stroke-miterlimit="3.25" x1="231.355" y1="110.863" x2="231.355" y2="108.461"/>
	<line fill="none" stroke="#666666" stroke-miterlimit="3.25" x1="248.5" y1="110.863" x2="248.5" y2="108.461"/>
	<line fill="none" stroke="#666666" stroke-miterlimit="3.25" x1="265.645" y1="110.863" x2="265.645" y2="106.859"/>
	<line fill="none" stroke="#666666" stroke-miterlimit="3.25" x1="282.785" y1="110.863" x2="282.785" y2="108.461"/>
	<line fill="none" stroke="#666666" stroke-miterlimit="3.25" x1="299.93" y1="110.863" x2="299.93" y2="108.461"/>
	<line fill="none" stroke="#666666" stroke-miterlimit="3.25" x1="317.07" y1="110.863" x2="317.07" y2="108.461"/>
	<line fill="none" stroke="#666666" stroke-miterlimit="3.25" x1="334.215" y1="110.863" x2="334.215" y2="108.461"/>
	<line fill="none" stroke="#666666" stroke-miterlimit="3.25" x1="351.355" y1="110.863" x2="351.355" y2="106.859"/>
	<line fill="none" stroke="#666666" stroke-miterlimit="3.25" x1="1.355" y1="110.863" x2="358.5" y2="110.863"/>
	<line fill="none" stroke="#666666" stroke-miterlimit="3.25" x1="179.93" y1="220.121" x2="182.332" y2="220.121"/>
	<line fill="none" stroke="#666666" stroke-miterlimit="3.25" x1="179.93" y1="210.191" x2="183.934" y2="210.191"/>
	<line fill="none" stroke="#666666" stroke-miterlimit="3.25" x1="179.93" y1="200.258" x2="182.332" y2="200.258"/>
	<line fill="none" stroke="#666666" stroke-miterlimit="3.25" x1="179.93" y1="190.324" x2="182.332" y2="190.324"/>
	<line fill="none" stroke="#666666" stroke-miterlimit="3.25" x1="179.93" y1="180.391" x2="182.332" y2="180.391"/>
	<line fill="none" stroke="#666666" stroke-miterlimit="3.25" x1="179.93" y1="170.461" x2="182.332" y2="170.461"/>
	<line fill="none" stroke="#666666" stroke-miterlimit="3.25" x1="179.93" y1="160.527" x2="183.934" y2="160.527"/>
	<line fill="none" stroke="#666666" stroke-miterlimit="3.25" x1="179.93" y1="150.594" x2="182.332" y2="150.594"/>
	<line fill="none" stroke="#666666" stroke-miterlimit="3.25" x1="179.93" y1="140.66" x2="182.332" y2="140.66"/>
	<line fill="none" stroke="#666666" stroke-miterlimit="3.25" x1="179.93" y1="130.73" x2="182.332" y2="130.73"/>
	<line fill="none" stroke="#666666" stroke-miterlimit="3.25" x1="179.93" y1="120.797" x2="182.332" y2="120.797"/>
	<line fill="none" stroke="#666666" stroke-miterlimit="3.25" x1="179.93" y1="110.863" x2="183.934" y2="110.863"/>
	<line fill="none" stroke="#666666" stroke-miterlimit="3.25" x1="179.93" y1="100.93" x2="182.332" y2="100.93"/>
	<line fill="none" stroke="#666666" stroke-miterlimit="3.25" x1="179.93" y1="90.996" x2="182.332" y2="90.996"/>
	<line fill="none" stroke="#666666" stroke-miterlimit="3.25" x1="179.93" y1="81.066" x2="182.332" y2="81.066"/>
	<line fill="none" stroke="#666666" stroke-miterlimit="3.25" x1="179.93" y1="71.133" x2="182.332" y2="71.133"/>
	<line fill="none" stroke="#666666" stroke-miterlimit="3.25" x1="179.93" y1="61.199" x2="183.934" y2="61.199"/>
	<line fill="none" stroke="#666666" stroke-miterlimit="3.25" x1="179.93" y1="51.266" x2="182.332" y2="51.266"/>
	<line fill="none" stroke="#666666" stroke-miterlimit="3.25" x1="179.93" y1="41.336" x2="182.332" y2="41.336"/>
	<line fill="none" stroke="#666666" stroke-miterlimit="3.25" x1="179.93" y1="31.402" x2="182.332" y2="31.402"/>
	<line fill="none" stroke="#666666" stroke-miterlimit="3.25" x1="179.93" y1="21.469" x2="182.332" y2="21.469"/>
	<line fill="none" stroke="#666666" stroke-miterlimit="3.25" x1="179.93" y1="11.535" x2="183.934" y2="11.535"/>
	<line fill="none" stroke="#666666" stroke-miterlimit="3.25" x1="179.93" y1="1.605" x2="182.332" y2="1.605"/>
	<line fill="none" stroke="#666666" stroke-miterlimit="3.25" x1="179.93" y1="221.227" x2="179.93" y2="0.5"/>
</g>
<g>
	<g>
		<path fill="#80ED80" d="M40.005,195.55c0,0.415-0.052,0.813-0.157,1.193c-0.105,0.38-0.253,0.735-0.444,1.066
			c-0.191,0.33-0.421,0.629-0.69,0.895c-0.269,0.268-0.568,0.496-0.899,0.688s-0.686,0.34-1.066,0.444s-0.778,0.157-1.193,0.157
			c-0.625,0-1.206-0.115-1.743-0.346c-0.538-0.229-1.007-0.544-1.408-0.943c-0.401-0.398-0.715-0.867-0.943-1.408
			c-0.228-0.539-0.342-1.122-0.342-1.746c0-0.41,0.052-0.806,0.157-1.186c0.105-0.381,0.253-0.735,0.444-1.063
			s0.421-0.627,0.69-0.896s0.567-0.499,0.896-0.69s0.681-0.34,1.06-0.444s0.775-0.157,1.189-0.157c0.615,0,1.194,0.115,1.736,0.345
			c0.542,0.23,1.014,0.546,1.415,0.947s0.718,0.871,0.95,1.412C39.889,194.356,40.005,194.935,40.005,195.55z"/>
	</g>
	<g>
		<path fill="#80ED80" d="M63.234,182.091c0,0.415-0.052,0.813-0.157,1.193c-0.105,0.38-0.253,0.735-0.444,1.066
			c-0.191,0.33-0.421,0.629-0.69,0.895c-0.269,0.268-0.568,0.496-0.899,0.688s-0.686,0.34-1.066,0.444s-0.778,0.157-1.193,0.157
			c-0.625,0-1.206-0.115-1.743-0.346c-0.538-0.229-1.007-0.544-1.408-0.943c-0.401-0.398-0.715-0.867-0.943-1.408
			c-0.228-0.539-0.342-1.122-0.342-1.746c0-0.41,0.052-0.806,0.157-1.186c0.105-0.381,0.253-0.735,0.444-1.063
			s0.421-0.627,0.69-0.896s0.567-0.499,0.896-0.69s0.681-0.34,1.06-0.444s0.775-0.157,1.189-0.157c0.615,0,1.194,0.115,1.736,0.345
			c0.542,0.23,1.014,0.546,1.415,0.947s0.718,0.871,0.95,1.412C63.118,180.897,63.234,181.476,63.234,182.091z"/>
	</g>
	<g>
		<path fill="#80ED80" d="M135.506,140.216c0,0.415-0.052,0.813-0.157,1.193c-0.105,0.38-0.253,0.735-0.444,1.066
			c-0.191,0.33-0.421,0.629-0.69,0.895c-0.269,0.268-0.568,0.496-0.899,0.688s-0.686,0.34-1.066,0.444s-0.778,0.157-1.193,0.157
			c-0.625,0-1.206-0.115-1.743-0.346c-0.538-0.229-1.007-0.544-1.408-0.943c-0.401-0.398-0.715-0.867-0.943-1.408
			c-0.228-0.539-0.342-1.122-0.342-1.746c0-0.41,0.052-0.806,0.157-1.186c0.105-0.381,0.253-0.735,0.444-1.063
			s0.421-0.627,0.69-0.896s0.567-0.499,0.896-0.69s0.681-0.34,1.06-0.444s0.775-0.157,1.189-0.157c0.615,0,1.194,0.115,1.736,0.345
			c0.542,0.23,1.014,0.546,1.415,0.947s0.718,0.871,0.95,1.412C135.39,139.022,135.506,139.601,135.506,140.216z"/>
	</g>
	<g>
		<path fill="#80ED80" d="M184.403,111.885c0,0.414-0.053,0.813-0.157,1.193c-0.104,0.38-0.253,0.735-0.444,1.066
			c-0.191,0.33-0.422,0.629-0.69,0.895c-0.269,0.268-0.568,0.496-0.899,0.688c-0.33,0.191-0.686,0.34-1.066,0.444
			c-0.38,0.104-0.778,0.157-1.192,0.157c-0.625,0-1.206-0.115-1.743-0.346c-0.538-0.229-1.007-0.544-1.408-0.943
			c-0.401-0.398-0.715-0.867-0.943-1.408c-0.228-0.539-0.342-1.121-0.342-1.746c0-0.41,0.052-0.806,0.157-1.186
			s0.253-0.735,0.444-1.063s0.421-0.626,0.69-0.896s0.567-0.499,0.896-0.69s0.681-0.339,1.06-0.444s0.775-0.157,1.189-0.157
			c0.615,0,1.194,0.115,1.736,0.345s1.014,0.546,1.415,0.947s0.718,0.872,0.95,1.412S184.403,111.27,184.403,111.885z"/>
	</g>
	<g>
		<path fill="#80ED80" d="M233.301,83.553c0,0.415-0.053,0.813-0.157,1.193s-0.253,0.736-0.444,1.066s-0.422,0.629-0.69,0.896
			s-0.568,0.496-0.899,0.687c-0.33,0.191-0.686,0.339-1.066,0.444c-0.38,0.105-0.777,0.157-1.192,0.157
			c-0.624,0-1.205-0.115-1.743-0.345s-1.007-0.544-1.408-0.943s-0.716-0.868-0.943-1.408s-0.342-1.122-0.342-1.747
			c0-0.41,0.053-0.806,0.157-1.186s0.253-0.735,0.444-1.063s0.422-0.626,0.69-0.896s0.567-0.499,0.896-0.69s0.682-0.339,1.06-0.444
			s0.774-0.157,1.189-0.157c0.615,0,1.194,0.115,1.736,0.345s1.014,0.546,1.415,0.947s0.718,0.872,0.95,1.412
			S233.301,82.938,233.301,83.553z"/>
	</g>
	<g>
		<path fill="#80ED80" d="M305.572,41.679c0,0.415-0.053,0.813-0.157,1.193s-0.253,0.736-0.444,1.066s-0.422,0.629-0.69,0.896
			s-0.568,0.496-0.899,0.687c-0.33,0.191-0.686,0.339-1.066,0.444c-0.38,0.105-0.777,0.157-1.192,0.157
			c-0.624,0-1.205-0.115-1.743-0.345s-1.007-0.544-1.408-0.943s-0.716-0.868-0.943-1.408s-0.342-1.122-0.342-1.747
			c0-0.41,0.053-0.806,0.157-1.186s0.253-0.735,0.444-1.063s0.422-0.626,0.69-0.896s0.567-0.499,0.896-0.69s0.682-0.339,1.06-0.444
			s0.774-0.157,1.189-0.157c0.615,0,1.194,0.115,1.736,0.345s1.014,0.546,1.415,0.947s0.718,0.872,0.95,1.412
			S305.572,41.063,305.572,41.679z"/>
	</g>
	<g>
		<path fill="#80ED80" d="M328.801,28.22c0,0.415-0.053,0.813-0.157,1.193s-0.253,0.736-0.444,1.066s-0.422,0.629-0.69,0.896
			s-0.568,0.496-0.899,0.687c-0.33,0.191-0.686,0.339-1.066,0.444c-0.38,0.105-0.777,0.157-1.192,0.157
			c-0.624,0-1.205-0.115-1.743-0.345s-1.007-0.544-1.408-0.943s-0.716-0.868-0.943-1.408s-0.342-1.122-0.342-1.747
			c0-0.41,0.053-0.806,0.157-1.186s0.253-0.735,0.444-1.063s0.422-0.626,0.69-0.896s0.567-0.499,0.896-0.69s0.682-0.339,1.06-0.444
			s0.774-0.157,1.189-0.157c0.615,0,1.194,0.115,1.736,0.345s1.014,0.546,1.415,0.947s0.718,0.872,0.95,1.412
			S328.801,27.604,328.801,28.22z"/>
	</g>
</g>
</svg>
